Coordinates
version=1
nRows=14
nColumns=24
inDegrees=yes

Units are S.I. units (second, meters, Newtons, ...)
Angles are in degrees.

endheader
time	pelvis_tilt	pelvis_list	pelvis_rotation	pelvis_tx	pelvis_ty	pelvis_tz	hip_flexion_r	hip_adduction_r	hip_rotation_r	knee_angle_r	ankle_angle_r	subtalar_angle_r	mtp_angle_r	hip_flexion_l	hip_adduction_l	hip_rotation_l	knee_angle_l	ankle_angle_l	subtalar_angle_l	mtp_angle_l	lumbar_extension	lumbar_bending	lumbar_rotation
      1.81000000	      9.56922782	     -6.44183337	      7.81738874	     -0.01773859	      1.01113794	      0.01331257	     11.92632865	     -2.63603505	    -31.18920292	    -23.15349167	     -2.33043044	      5.52561695	     11.19111828	     -8.85941281	     -4.84382033	    -14.50003370	    -17.31125549	      6.37206808	     -4.67568750	      5.20216106	    -15.98552753	     16.10365739	     35.78098558
      1.81500000	      9.50068001	     -6.27179244	      8.05515369	     -0.01196490	      1.01013675	      0.01317518	     12.21209102	     -2.74211026	    -31.85687344	    -21.75994558	     -2.65478675	      6.03147556	     11.03642858	     -9.08553431	     -4.75704416	    -14.29954772	    -17.43335118	      6.69168072	     -4.54356909	      5.27020561	    -15.88671021	     15.97269975	     35.54756033
      1.82000000	      9.43421664	     -6.07128729	      8.28256270	     -0.00620507	      1.00908127	      0.01302742	     12.49486065	     -2.88619905	    -32.54097458	    -20.40662003	     -2.91046424	      6.70093488	     10.69692921	     -9.31594078	     -4.63332115	    -14.09748530	    -17.56314752	      7.01065654	     -4.49002416	      5.38516582	    -15.80025844	     15.80975604	     35.30256464
      1.82500000	      9.35540020	     -5.89368573	      8.49756949	     -0.00045538	      1.00800421	      0.01293916	     12.78754596	     -2.99066802	    -33.18936725	    -19.08005421	     -2.81149946	      7.53429362	      7.67109606	     -9.53496707	     -4.53410573	    -13.89146389	    -17.67469630	      7.19614774	     -4.50794400	      6.08139867	    -15.71170879	     15.67091695	     35.11860028
      1.83000000	      9.25278691	     -5.70962856	      8.70362892	      0.00531935	      1.00684618	      0.01289883	     13.09650698	     -3.09927015	    -33.84690043	    -17.73694543	     -3.03668991	      8.29571725	      7.50158589	     -9.71928749	     -4.43601572	    -13.72687012	    -17.82977303	      7.53988869	     -4.37983965	      6.15734571	    -15.59678950	     15.51241922	     34.90148716
      1.83500000	      9.16083737	     -5.51978838	      8.91404061	      0.01107439	      1.00566113	      0.01287294	     13.38910246	     -3.20912154	    -34.51847235	    -16.41963023	     -3.21297178	      9.13853002	      7.21316273	     -9.90991910	     -4.33712312	    -13.55163373	    -17.99447920	      7.86136949	     -4.29181495	      6.27331917	    -15.50101436	     15.35195019	     34.69268652
      1.84000000	      9.03711690	     -5.33812785	      9.10740314	      0.01680397	      1.00442743	      0.01287572	     13.72261131	     -3.31020311	    -35.15142162	    -15.17459385	     -2.99789489	     10.13080949	      4.19852558	    -10.06922235	     -4.23683831	    -13.36469658	    -18.14261056	      8.05600713	     -4.31114696	      7.02858246	    -15.38377774	     15.19915165	     34.52638875
      1.84500000	      8.92291209	     -5.15958564	      9.29747791	      0.02254987	      1.00315655	      0.01294715	     14.03450872	     -3.39530154	    -35.78070911	    -13.91107706	     -3.15116619	     11.05291129	      4.09025411	    -10.22544218	     -4.15974481	    -13.23551444	    -18.33950102	      8.38491451	     -4.13741121	      7.10106465	    -15.28006317	     15.04447240	     34.35926932
      1.85000000	      8.78804659	     -4.97841273	      9.48827300	      0.02829985	      1.00184610	      0.01301530	     14.36725937	     -3.48913620	    -36.40623664	    -12.70166510	     -3.26898826	     12.00965849	      3.90935091	    -10.36419655	     -4.07348186	    -13.08056999	    -18.52558955	      8.69478345	     -4.02331735	      7.20222213	    -15.15497788	     14.88603886	     34.18414420
      1.85500000	      8.65896551	     -4.78724683	      9.67431793	      0.03401400	      1.00051758	      0.01309043	     14.70309737	     -3.59921483	    -37.00501301	    -11.60389401	     -2.95050648	     13.08803414	      1.14196076	    -10.50692489	     -3.97480037	    -12.91701425	    -18.71197173	      8.91671128	     -4.03378375	      8.02487806	    -15.04807659	     14.71718515	     33.99378741
      1.86000000	      8.52275571	     -4.62475474	      9.85059608	      0.03979317	      0.99916946	      0.01323289	     15.03583835	     -3.66692389	    -37.57800894	    -10.50280392	     -3.03628968	     14.03490609	      1.04932264	    -10.64837555	     -3.91753055	    -12.80427227	    -18.89751145	      9.22921582	     -3.85541444	      8.09607870	    -14.92971954	     14.57585716	     33.83931416
      1.86500000	      8.40575209	     -4.44902290	     10.03955301	      0.04557334	      0.99782588	      0.01333969	     15.34914948	     -3.76100236	    -38.16086613	     -9.50054218	     -3.03362818	     15.01165025	      0.82119600	    -10.81101216	     -3.84770498	    -12.66319309	    -19.08667453	      9.55080798	     -3.75925193	      8.22715817	    -14.83273129	     14.42744626	     33.63587042
      1.87000000	      8.24460231	     -4.29803800	     10.21910034	      0.05134956	      0.99642785	      0.01349033	     15.71557264	     -3.83867758	    -38.68606431	     -8.57426075	     -3.05409656	     15.90832365	      0.59609466	    -10.91856784	     -3.80341787	    -12.52956515	    -19.28435957	      9.82789825	     -3.59805247	      8.37711419	    -14.69400497	     14.30472169	     33.49851024
      1.87500000	      8.10761449	     -4.13713684	     10.39804425	      0.05712758	      0.99506372	      0.01361831	     16.06091864	     -3.93920996	    -39.16992878	     -7.79011671	     -2.65759388	     16.81470528	     -1.99363259	    -11.05966638	     -3.74422258	    -12.37420424	    -19.46109550	      9.97464357	     -3.64165674	      9.55438530	    -14.58540053	     14.17675781	     33.33219725
